# xmcd
# 
# Track frame offsets:
#     210
#     18885
#     41947
#     65972
#     76135
#     105160
#     125985
#     147697
#     158385
#     172935
#     186997
#     208660
#     227585
#     245347
#     278535
# 
# Disc length: 3953
# 
# Revision: 1
# Processed by: cddbd v1.5.2PL0 Copyright (c) Steve Scherf et al.
# Submitted via: BonkEnc v1.0beta4
# 
DISCID=cc0f6f0f
DTITLE=Bobby McFerrin - Dizionario Enciclopedico del Jazz - Volume 13
DYEAR=1991
DGENRE=Jazz
TTITLE0=Dance With Me
TTITLE1=Feline
TTITLE2=Moondance
TTITLE3=All Feets Can Dance
TTITLE4=Sightless Bird
TTITLE5=Peace
TTITLE6=Jubilee
TTITLE7=Hallucinations
TTITLE8=Chicken
TTITLE9=Blackbird
TTITLE10=The Jump
TTITLE11=El Brujo
TTITLE12=Music Box
TTITLE13=Medley: Donna Lee/Big Top/We're In The Moment
TTITLE14=A-Train
EXTD=YEAR: 1991
EXTT0=
EXTT1=
EXTT2=
EXTT3=
EXTT4=
EXTT5=
EXTT6=
EXTT7=
EXTT8=
EXTT9=
EXTT10=
EXTT11=
EXTT12=
EXTT13=
EXTT14=
PLAYORDER=
